<svg width="529" height="630" viewBox="0 0 529 630" fill="none" xmlns="http://www.w3.org/2000/svg">
<path d="M192.947 484.852C263.054 398.503 315.377 136.081 275.5 134C218 131 109.807 169.1 76.5914 264.5C93.3417 237.833 120.674 213.5 96 277.5C88.2339 297.644 77.3041 311.993 65.5282 322.167C64.7173 339.023 65.8199 356.898 69.1732 375.822C79.4776 320.223 108.4 280.534 110.5 277.5C144.167 231 200.9 172.3 158.5 309.5C141.689 363.897 135.458 418.315 134.059 466.864C153.295 472.638 173.44 478.734 192.947 484.852Z" fill="#B0946E"/>
<path d="M158.5 309.5C200.9 172.3 144.167 231 110.5 277.5C108.4 280.534 79.4776 320.223 69.1732 375.822C73.5311 400.413 81.6901 426.775 94.3906 454.97C106.751 458.692 120.168 462.694 134.059 466.864C135.458 418.315 141.689 363.897 158.5 309.5Z" fill="#B0946E"/>
<path d="M96 277.5C120.674 213.5 93.3417 237.833 76.5914 264.5C70.4237 282.214 66.5263 301.419 65.5282 322.167C77.3041 311.993 88.2339 297.644 96 277.5Z" fill="#B0946E"/>
<path d="M73.0991 272.529C50.3816 320.926 9.04113 342.995 0.5 346C8.45649 346.56 29.6847 345.084 51.1637 332.463C57.3887 310.535 65.8314 289.443 73.0991 272.529Z" fill="#B0946E"/>
<path d="M69.1732 375.822C65.8199 356.898 64.7173 339.023 65.5282 322.167C60.8257 326.23 55.9884 329.628 51.1637 332.463C38.596 376.734 35.068 424.414 68.5 448C63.9339 422.307 65.0964 397.819 69.1732 375.822Z" fill="#B0946E"/>
<path d="M65.5282 322.167C66.5263 301.419 70.4237 282.214 76.5914 264.5C75.4864 267.253 74.3196 269.929 73.0991 272.529C65.8314 289.443 57.3887 310.535 51.1637 332.463C55.9884 329.628 60.8257 326.23 65.5282 322.167Z" fill="#B0946E"/>
<path d="M94.3906 454.97C94.9192 456.143 95.4557 457.32 96 458.5C96.9457 460.549 97.8939 462.534 98.8447 464.455C105.207 476.309 116.65 490.066 133.835 502.648C133.661 491.163 133.704 479.203 134.059 466.864C120.168 462.694 106.751 458.692 94.3906 454.97Z" fill="#B0946E"/>
<path d="M68.5 448C77.119 496.498 78.5191 578.03 141 627C141 606.049 135.081 562.666 133.929 507.803C122.076 501.416 110.281 487.557 98.8447 464.455C97.7461 462.408 96.7991 460.418 96 458.5C95.4557 457.32 94.9192 456.143 94.3906 454.97C81.6901 426.775 73.5311 400.413 69.1732 375.822C65.0964 397.819 63.9339 422.307 68.5 448Z" fill="#B0946E"/>
<path d="M98.8447 464.455C110.281 487.557 122.076 501.416 133.929 507.803C133.893 506.096 133.862 504.377 133.835 502.648C116.65 490.066 105.207 476.309 98.8447 464.455Z" fill="#B0946E"/>
<path d="M192.947 484.852C173.44 478.734 153.295 472.638 134.059 466.864C133.704 479.203 133.661 491.163 133.835 502.648C138.217 505.856 142.973 508.988 148.112 511.992C163.378 512.909 178.538 502.6 192.947 484.852Z" fill="#B0946E"/>
<path d="M133.835 502.648C133.862 504.377 133.893 506.096 133.929 507.803C138.654 510.349 143.388 511.708 148.112 511.992C142.973 508.988 138.217 505.856 133.835 502.648Z" fill="#B0946E"/>
<path d="M275.5 541.5C356.318 540.631 281.149 512.516 192.947 484.852C178.538 502.6 163.378 512.909 148.112 511.992C177.411 529.119 219.197 542.105 275.5 541.5Z" fill="#B0946E"/>
<path d="M96 458.5C95.4557 457.32 94.9192 456.143 94.3906 454.97M96 458.5C96.7991 460.418 97.7461 462.408 98.8447 464.455M96 458.5C96.9457 460.549 97.8939 462.534 98.8447 464.455M76.5914 264.5C109.807 169.1 218 131 275.5 134C315.377 136.081 263.054 398.503 192.947 484.852M76.5914 264.5C93.3417 237.833 120.674 213.5 96 277.5C88.2339 297.644 77.3041 311.993 65.5282 322.167M76.5914 264.5C70.4237 282.214 66.5263 301.419 65.5282 322.167M76.5914 264.5C75.4696 267.052 74.3004 269.734 73.0991 272.529M76.5914 264.5C75.4864 267.253 74.3196 269.929 73.0991 272.529M68.5 448C77.119 496.498 78.5191 578.03 141 627C141 606.049 135.081 562.666 133.929 507.803M68.5 448C63.9339 422.307 65.0964 397.819 69.1732 375.822M68.5 448C35.068 424.414 38.596 376.734 51.1637 332.463M94.3906 454.97C81.6901 426.775 73.5311 400.413 69.1732 375.822M94.3906 454.97C106.751 458.692 120.168 462.694 134.059 466.864M192.947 484.852C173.44 478.734 153.295 472.638 134.059 466.864M192.947 484.852C281.149 512.516 356.318 540.631 275.5 541.5C219.197 542.105 177.411 529.119 148.112 511.992M192.947 484.852C178.538 502.6 163.378 512.909 148.112 511.992M65.5282 322.167C64.7173 339.023 65.8199 356.898 69.1732 375.822M65.5282 322.167C60.8257 326.23 55.9884 329.628 51.1637 332.463M69.1732 375.822C79.4776 320.223 108.4 280.534 110.5 277.5C144.167 231 200.9 172.3 158.5 309.5C141.689 363.897 135.458 418.315 134.059 466.864M134.059 466.864C133.704 479.203 133.661 491.163 133.835 502.648M73.0991 272.529C50.3816 320.926 9.04113 342.995 0.5 346C8.45649 346.56 29.6847 345.084 51.1637 332.463M73.0991 272.529C65.8314 289.443 57.3887 310.535 51.1637 332.463M133.929 507.803C122.076 501.416 110.281 487.557 98.8447 464.455M133.929 507.803C133.893 506.096 133.862 504.377 133.835 502.648M133.929 507.803C138.654 510.349 143.388 511.708 148.112 511.992M98.8447 464.455C105.207 476.309 116.65 490.066 133.835 502.648M133.835 502.648C138.217 505.856 142.973 508.988 148.112 511.992" stroke="#B0946E"/>
<path d="M380.49 512.276C351.21 529.262 309.541 542.103 253.48 541.5C172.749 540.632 247.667 512.644 335.745 485.046C350.121 502.751 365.251 513.081 380.49 512.276Z" fill="#B0946E"/>
<path d="M370.48 309.627C328.08 172.427 384.813 231.127 418.48 277.627C420.37 280.358 446.912 317.155 461.201 367.255C457.324 394.3 448.799 423.551 434.589 455.097C421.047 459.175 406.238 463.586 390.926 468.185C391.761 419.194 387.373 364.291 370.48 309.627Z" fill="#B0946E"/>
<path d="M418.48 277.627C384.813 231.127 328.08 172.427 370.48 309.627C387.373 364.291 391.761 419.194 390.926 468.185C372.812 473.626 353.996 479.328 335.745 485.046C265.782 398.887 213.657 138.078 253.48 136C310.98 133 419.173 169.227 452.388 264.627C435.638 237.961 408.306 213.627 432.98 277.627C440.746 297.772 451.676 312.12 463.452 322.295C464.137 336.547 463.455 351.528 461.201 367.255C446.912 317.155 420.37 280.358 418.48 277.627Z" fill="#B0946E"/>
<path d="M432.98 277.627C408.306 213.627 435.638 237.961 452.388 264.627C458.556 282.342 462.453 301.546 463.452 322.295C451.676 312.12 440.746 297.772 432.98 277.627Z" fill="#B0946E"/>
<path d="M456.121 273.167C478.889 321.209 519.969 343.133 528.48 346.127C520.694 346.675 500.202 345.274 479.202 333.389C472.132 311 463.318 289.757 456.121 273.167Z" fill="#B0946E"/>
<path d="M461.201 367.255C463.455 351.528 464.137 336.547 463.452 322.295C468.604 326.747 473.919 330.4 479.202 333.389C494.356 381.383 501.495 434.644 467.5 458.627C473.219 426.448 469.067 394.836 461.201 367.255Z" fill="#B0946E"/>
<path d="M463.452 322.295C462.453 301.546 458.556 282.342 452.388 264.627C453.566 267.561 454.813 270.407 456.121 273.167C463.318 289.757 472.132 311 479.202 333.389C473.919 330.4 468.604 326.747 463.452 322.295Z" fill="#B0946E"/>
<path d="M467.5 458.627C458.881 507.126 438.981 579.53 376.5 628.5C376.5 607.805 384.938 564.906 388.95 510.664C402.852 506.063 416.746 491.643 430.146 464.56C431.24 462.521 432.183 460.538 432.98 458.627C433.524 457.447 434.061 456.271 434.589 455.097C448.799 423.551 457.324 394.3 461.201 367.255C469.067 394.836 473.219 426.448 467.5 458.627Z" fill="#B0946E"/>
<path d="M434.589 455.097C434.061 456.271 433.524 457.447 432.98 458.627C432.038 460.669 431.093 462.646 430.146 464.56C423.082 477.726 409.743 493.227 389.223 506.854C390.081 494.488 390.698 481.557 390.926 468.185C406.238 463.586 421.047 459.175 434.589 455.097Z" fill="#B0946E"/>
<path d="M335.745 485.046C353.996 479.328 372.812 473.626 390.926 468.185C390.698 481.557 390.081 494.488 389.223 506.854C386.445 508.699 383.534 510.51 380.49 512.276C365.251 513.081 350.121 502.751 335.745 485.046Z" fill="#B0946E"/>
<path d="M430.146 464.56C416.746 491.643 402.852 506.063 388.95 510.664C389.044 509.4 389.135 508.13 389.223 506.854C409.743 493.227 423.082 477.726 430.146 464.56Z" fill="#B0946E"/>
<path d="M388.95 510.664C386.129 511.598 383.308 512.127 380.49 512.276C383.534 510.51 386.445 508.699 389.223 506.854C389.135 508.13 389.044 509.4 388.95 510.664Z" fill="#B0946E"/>
<path d="M432.98 458.627C433.524 457.447 434.061 456.271 434.589 455.097M432.98 458.627C432.183 460.538 431.24 462.521 430.146 464.56M432.98 458.627C432.038 460.669 431.093 462.646 430.146 464.56M452.388 264.627C419.173 169.227 310.98 133 253.48 136C213.657 138.078 265.782 398.887 335.745 485.046M452.388 264.627C435.638 237.961 408.306 213.627 432.98 277.627C440.746 297.772 451.676 312.12 463.452 322.295M452.388 264.627C458.556 282.342 462.453 301.546 463.452 322.295M452.388 264.627C453.566 267.307 454.817 270.161 456.121 273.167M452.388 264.627C453.566 267.561 454.813 270.407 456.121 273.167M467.5 458.627C458.881 507.126 438.981 579.53 376.5 628.5C376.5 607.805 384.938 564.906 388.95 510.664M467.5 458.627C473.219 426.448 469.067 394.836 461.201 367.255M467.5 458.627C501.495 434.644 494.356 381.383 479.202 333.389M434.589 455.097C448.799 423.551 457.324 394.3 461.201 367.255M434.589 455.097C421.047 459.175 406.238 463.586 390.926 468.185M335.745 485.046C353.996 479.328 372.812 473.626 390.926 468.185M335.745 485.046C247.667 512.644 172.749 540.632 253.48 541.5C309.541 542.103 351.21 529.262 380.49 512.276M335.745 485.046C350.121 502.751 365.251 513.081 380.49 512.276M463.452 322.295C464.137 336.547 463.455 351.528 461.201 367.255M463.452 322.295C468.604 326.747 473.919 330.4 479.202 333.389M461.201 367.255C446.912 317.155 420.37 280.358 418.48 277.627C384.813 231.127 328.08 172.427 370.48 309.627C387.373 364.291 391.761 419.194 390.926 468.185M390.926 468.185C390.698 481.557 390.081 494.488 389.223 506.854M380.49 512.276C383.308 512.127 386.129 511.598 388.95 510.664M380.49 512.276C383.534 510.51 386.445 508.699 389.223 506.854M456.121 273.167C478.889 321.209 519.969 343.133 528.48 346.127C520.694 346.675 500.202 345.274 479.202 333.389M456.121 273.167C463.318 289.757 472.132 311 479.202 333.389M388.95 510.664C402.852 506.063 416.746 491.643 430.146 464.56M388.95 510.664C389.044 509.4 389.135 508.13 389.223 506.854M430.146 464.56C423.082 477.726 409.743 493.227 389.223 506.854" stroke="#B0946E"/>
<path d="M370.512 75.7797C404.15 66.7091 441.72 43.9316 327.468 18.3117C300.253 12.2089 281.46 12.9003 269.045 18.1746C302.497 19.1756 352.215 38.294 378.615 50.6702C381.199 56.3583 388.023 66.2458 355.832 65.7241C328.398 65.2795 320.767 83.4145 322.991 87.5706C341.687 96.0235 366.623 106.498 338.536 107.36C310.45 108.222 333.507 110.756 341.531 114.324C360.236 116.004 377.866 103.764 347.428 92.3685C316.99 80.9726 349.81 78.8883 370.512 75.7797Z" fill="#B0946E"/>
<path d="M242.683 23.9819C218.183 42.1259 224.338 72.9836 230.478 86.1445C238.631 100.498 259.704 130.777 278.772 137.072C254.872 98.7826 229.342 35.0423 269.045 18.1746C258.017 17.8446 248.757 19.4835 242.683 23.9819Z" fill="#B0946E"/>
<path d="M193 485L264.5 509L336 485L264 323L193 485Z" fill="#B0946E" stroke="#B0946E"/>
</svg>
