<svg width="378" height="379" viewBox="0 0 378 379" fill="none" xmlns="http://www.w3.org/2000/svg">
<path d="M378 189C231.46 189 189.252 64.3755 189 1.13284L189 378C228.312 212.814 315 189.882 378 189Z" fill="#B0946E"/>
<path d="M189 1.13284C189.252 64.3755 231.46 189 378 189C315 189.882 228.312 212.814 189 378L189 1.13284ZM189 1.13284L189 0C188.999 0.375373 188.999 0.753 189 1.13284Z" stroke="#B0946E"/>
<path d="M-0.000320435 189C146.54 189 188.748 64.3755 189 1.13284L189 378C149.688 212.814 62.9997 189.882 -0.000320435 189Z" fill="#B0946E"/>
<path d="M189 1.13284C188.748 64.3755 146.54 189 -0.000327838 189C62.9997 189.882 149.688 212.814 189 378L189 1.13284ZM189 1.13284L189 0C189.001 0.375373 189.001 0.753 189 1.13284Z" stroke="#B0946E"/>
</svg>
